<svg xmlns="http://www.w3.org/2000/svg" viewBox="0 0 64 64">
  <defs>
    <linearGradient id="g" x1="0" y1="0" x2="1" y2="1">
      <stop offset="0" stop-color="hsl(190 100% 55%)"/>
      <stop offset="1" stop-color="hsl(250 100% 65%)"/>
    </linearGradient>
  </defs>
  <rect x="4" y="4" width="56" height="56" rx="14" fill="url(#g)"/>
  <g fill="#fff">
    <path d="M18 44V20h6.8c3.5 0 6 2.5 6 6.1 0 3.7-2.6 6.1-6.2 6.1H22v11.8h-4zM22 24v6.2h2.6c2 0 3.4-1.2 3.4-3.1 0-1.9-1.3-3.1-3.3-3.1H22z"/>
    <path d="M36 20h4.4l4.5 7.1 4.5-7.1H54l-6.4 10.1L54 44h-4.5l-4.6-7.3-4.6 7.3H36l6.4-9.9L36 20z"/>
  </g>
</svg>

